<?xml version="1.0" standalone="no"?>
<!DOCTYPE svg PUBLIC "-//W3C//DTD SVG 20010904//EN"
 "http://www.w3.org/TR/2001/REC-SVG-20010904/DTD/svg10.dtd">
<svg version="1.0" xmlns="http://www.w3.org/2000/svg"
 width="512.000000pt" height="512.000000pt" viewBox="0 0 512.000000 512.000000"
 preserveAspectRatio="xMidYMid meet">
<metadata>
Created by potrace 1.11, written by Peter Selinger 2001-2013
</metadata>
<g transform="translate(0.000000,512.000000) scale(0.100000,-0.100000)"
fill="#000000" stroke="none">
<path d="M1440 4880 l0 -80 -80 0 -80 0 0 -80 0 -80 80 0 80 0 0 -80 0 -80 80
0 80 0 0 80 0 80 80 0 80 0 0 80 0 80 -80 0 -80 0 0 80 0 80 -80 0 -80 0 0
-80z"/>
<path d="M2422 4858 c-204 -201 -374 -432 -488 -663 -98 -199 -133 -323 -170
-593 -5 -31 -12 -36 -234 -147 -126 -63 -233 -123 -238 -132 -6 -10 -22 -114
-38 -230 l-28 -213 -268 0 -269 0 -24 -25 -25 -24 0 -1096 0 -1095 -50 0 c-41
0 -56 -5 -75 -25 -14 -13 -25 -34 -25 -47 1 -13 18 -102 39 -198 31 -139 43
-178 61 -192 21 -17 111 -18 1970 -18 1859 0 1949 1 1970 18 18 14 30 53 61
192 21 96 38 185 39 198 0 13 -11 34 -25 47 -19 20 -34 25 -75 25 l-50 0 0
1095 0 1096 -25 24 -24 25 -269 0 -268 0 -28 213 c-16 116 -32 220 -38 230 -5
9 -112 69 -237 132 -243 121 -241 119 -241 193 0 19 -9 80 -21 135 -74 366
-299 749 -631 1075 -90 88 -110 102 -138 102 -28 0 -48 -14 -138 -102z m180
-788 c48 -14 95 -61 108 -111 31 -112 -77 -220 -189 -189 -145 39 -156 245
-16 295 49 17 51 17 97 5z m-829 -800 c11 -144 70 -422 112 -532 6 -16 -1 -18
-72 -18 -52 0 -85 -5 -99 -14 -12 -9 -65 -120 -134 -280 l-113 -266 -89 0
c-80 0 -89 2 -85 18 3 9 36 249 73 533 l68 516 161 80 c134 68 161 78 166 64
3 -9 9 -54 12 -101z m1978 -535 c36 -269 68 -509 71 -532 l6 -43 -87 0 -88 0
-113 266 c-69 160 -122 271 -134 280 -14 9 -47 14 -99 14 -71 0 -78 2 -72 18
38 98 96 368 110 507 3 33 8 79 11 102 l5 43 162 -83 162 -82 66 -490z m-1124
177 c46 -51 108 -182 132 -277 60 -233 54 -413 -19 -588 -31 -74 -125 -224
-175 -281 l-26 -29 -30 29 c-47 45 -133 162 -173 235 -78 143 -102 263 -86
425 29 284 134 481 280 525 38 11 62 1 97 -39z m-1427 -199 c0 -5 -18 -141
-40 -303 -22 -162 -40 -309 -40 -326 0 -17 9 -43 21 -58 l20 -26 195 0 c189 0
196 1 217 23 13 12 72 138 132 279 l110 258 72 0 73 0 21 -42 c12 -24 38 -68
59 -98 34 -51 37 -61 43 -150 6 -103 33 -202 78 -292 l29 -58 -272 0 c-265 0
-272 -1 -295 -22 l-23 -21 0 -514 0 -514 25 -24 24 -25 911 0 911 0 24 25 25
24 0 511 0 511 -25 24 -24 25 -270 0 -270 0 34 73 c46 96 65 173 72 282 5 83
9 94 43 145 20 30 47 74 59 98 l21 42 73 0 72 0 110 -258 c60 -141 119 -267
132 -279 21 -22 28 -23 217 -23 l195 0 20 26 c12 15 21 41 21 58 0 17 -18 164
-40 326 -22 162 -40 298 -40 303 0 4 31 7 70 7 58 0 71 -3 80 -19 6 -13 10
-207 10 -560 l0 -541 -200 0 -200 0 0 -80 0 -80 200 0 200 0 0 -80 0 -80 -177
0 c-240 0 -223 18 -223 -237 0 -259 -15 -243 225 -243 l175 0 0 -80 0 -80
-657 0 -657 0 -23 -22 c-13 -12 -23 -30 -23 -40 0 -17 -12 -18 -160 -18 -138
0 -160 2 -160 15 0 9 -11 27 -25 40 l-24 25 -776 0 -775 0 0 1040 0 1040 200
0 c110 0 200 -3 200 -7z m1207 -1073 c158 -161 148 -161 306 0 l117 120 265 0
265 0 0 -400 0 -400 -800 0 -800 0 0 400 0 400 265 0 265 0 117 -120z m1593
-600 l0 -80 -80 0 -80 0 0 80 0 80 80 0 80 0 0 -80z m-1760 -575 c0 -9 11 -27
25 -40 l24 -25 271 0 271 0 24 25 c14 13 25 31 25 40 0 13 84 15 786 15 702 0
786 -2 780 -15 -3 -9 -11 -45 -18 -80 l-11 -65 -1857 0 -1856 0 -14 68 c-7 37
-15 73 -18 80 -3 9 157 12 782 12 702 0 786 -2 786 -15z"/>
<path d="M2480 2720 l0 -80 80 0 80 0 0 80 0 80 -80 0 -80 0 0 -80z"/>
<path d="M2480 2200 l0 -280 80 0 80 0 0 280 0 280 -80 0 -80 0 0 -280z"/>
<path d="M960 1520 l0 -80 240 0 240 0 0 80 0 80 -240 0 -240 0 0 -80z"/>
<path d="M982 1257 c-21 -22 -22 -32 -22 -216 0 -258 -17 -241 240 -241 257 0
240 -17 240 240 0 257 18 240 -243 240 -189 0 -194 0 -215 -23z m298 -217 l0
-80 -80 0 -80 0 0 80 0 80 80 0 80 0 0 -80z"/>
<path d="M3520 4880 l0 -80 -80 0 -80 0 0 -80 0 -80 80 0 80 0 0 -80 0 -80 80
0 80 0 0 80 0 80 80 0 80 0 0 80 0 80 -80 0 -80 0 0 80 0 80 -80 0 -80 0 0
-80z"/>
<path d="M800 4400 l0 -80 -80 0 -80 0 0 -80 0 -80 80 0 80 0 0 -80 0 -80 80
0 80 0 0 80 0 80 80 0 80 0 0 80 0 80 -80 0 -80 0 0 80 0 80 -80 0 -80 0 0
-80z"/>
<path d="M4160 4400 l0 -80 -80 0 -80 0 0 -80 0 -80 80 0 80 0 0 -80 0 -80 80
0 80 0 0 80 0 80 80 0 80 0 0 80 0 80 -80 0 -80 0 0 80 0 80 -80 0 -80 0 0
-80z"/>
</g>
</svg>
